<svg width="35" height="35" viewBox="0 0 35 35" fill="none" xmlns="http://www.w3.org/2000/svg">
<path d="M1.5 1.5H5.05556L5.94444 6.83333M5.94444 6.83333L8.61111 22.8333H28.1667L33.5 6.83333H5.94444Z" stroke="#86C627" stroke-width="3" stroke-linecap="round" stroke-linejoin="round"/>
<path d="M10.3891 33.5C11.3709 33.5 12.1669 32.7041 12.1669 31.7222C12.1669 30.7404 11.3709 29.9444 10.3891 29.9444C9.40727 29.9444 8.61133 30.7404 8.61133 31.7222C8.61133 32.7041 9.40727 33.5 10.3891 33.5Z" stroke="#86C627" stroke-width="3" stroke-linecap="round" stroke-linejoin="round"/>
<path d="M26.3891 33.5C27.3709 33.5 28.1669 32.7041 28.1669 31.7222C28.1669 30.7404 27.3709 29.9444 26.3891 29.9444C25.4073 29.9444 24.6113 30.7404 24.6113 31.7222C24.6113 32.7041 25.4073 33.5 26.3891 33.5Z" stroke="#86C627" stroke-width="3" stroke-linecap="round" stroke-linejoin="round"/>
</svg>
