<svg width="88" height="88" viewBox="0 0 88 88" fill="none" xmlns="http://www.w3.org/2000/svg">
<path d="M85.9805 29.3751C48.5691 -38.5408 -26.5194 29.3745 9.54583 53.0684C-2.29457 27.5809 27.7567 15.073 44.2624 12.005L42.3785 8.84592L53.6822 12.2683L44.5316 19.9028V16.4804C38.9335 16.0592 28.9216 22.0089 24.8846 25.9578C18.7664 31.9424 18.0665 38.8575 18.9636 42.2798C25.2076 54.7057 39.1488 41.4901 46.9538 33.5923C59.0649 21.7456 79.072 25.6034 85.9805 29.3751Z" fill="#5F9E00"/>
<path d="M1.46846 58.0739C38.8799 125.99 113.968 58.0745 77.9031 34.3805C89.7435 59.8681 59.6923 72.3759 43.1866 75.4439L45.0705 78.6031L33.7668 75.1807L42.9174 67.5462V70.9685C48.5155 71.3897 58.5273 65.4401 62.5644 61.4912C68.6826 55.5066 69.3825 48.5915 68.4854 45.1691C62.2414 32.7433 48.3001 45.9589 40.4952 53.8567C28.3841 65.7034 8.37695 61.8456 1.46846 58.0739Z" fill="#264E29"/>
</svg>
