<svg width="120" height="130" viewBox="0 0 120 130" fill="none" xmlns="http://www.w3.org/2000/svg">
<path d="M90.5346 48.6116C91.7226 49.2496 93.034 48.0439 92.6316 46.6752C90.0017 37.7296 81.7543 16.265 62.9433 15.1791C41.5114 13.9422 35.0595 28.5299 37.1472 36.4324L39.6542 41.8052C40.797 45.7569 44.4677 52.7484 56.1165 52.3684C71.1261 51.8786 77.8921 41.8228 90.5346 48.6116V48.6116Z" fill="#8AC44B"/>
<path d="M65.0863 24.4795C76.2904 24.4844 84.3732 31.3324 89.9343 39.0823C85.7394 29.0778 77.5087 16.0198 62.9433 15.1791C41.5114 13.9422 35.0595 28.5299 37.1472 36.4324L38.6444 39.6411C41.1673 32.1236 49.0968 24.4725 65.0863 24.4795V24.4795Z" fill="#009900"/>
<path d="M100.11 67.4107L94.5613 67.0764C90.8308 66.1727 83.4064 66.1208 77.8859 77.2396C70.7728 91.5663 75.4282 102.942 63.6802 111.409C62.5761 112.204 62.8843 114.037 64.1798 114.344C72.6458 116.35 93.9287 119.344 104.202 102.239C115.907 82.7502 107.471 69.4032 100.11 67.4107V67.4107Z" fill="#8AC44B"/>
<path d="M72.5329 114.883C84.281 105.872 79.6255 93.7654 86.7386 78.5181C90.6486 70.137 95.5132 67.7203 99.3445 67.3648L94.5613 67.0766C90.8308 66.1729 83.4064 66.1211 77.8859 77.2399C70.7728 91.5666 75.4282 102.942 63.6802 111.409C62.5761 112.205 62.8843 114.038 64.1798 114.345C66.1724 114.817 68.8751 115.343 71.9769 115.65C72.0851 115.356 72.2671 115.087 72.5329 114.883V114.883Z" fill="#009900"/>
<path d="M25.7512 54.3959C25.6672 52.9621 24.0477 52.3348 23.1547 53.3967C17.3186 60.3369 4.2832 78.8069 12.8207 96.998C22.5479 117.724 37.4354 116.483 42.7088 110.573L45.7505 105.535C48.338 102.486 52.0917 95.5469 45.9635 84.8082C38.067 70.9713 26.6455 69.6512 25.7512 54.3959V54.3959Z" fill="#8AC44B"/>
<path d="M21.0699 96.998C14.4777 82.9517 20.7475 68.7407 26.6336 59.7984C26.1762 58.2015 25.87 56.4227 25.7512 54.3959C25.6672 52.9621 24.0477 52.3348 23.1547 53.3967C17.3186 60.3369 4.2832 78.8069 12.8207 96.998C20.259 112.847 30.7145 115.85 37.5815 113.744C32.0118 112.171 25.9037 107.298 21.0699 96.998V96.998Z" fill="#009900"/>
<path d="M30.3055 45.1949C29.9232 45.5263 29.7256 46.0116 29.7197 46.5042L30.7404 47.8863C31.3246 48.6775 32.4152 48.7346 33.0678 48.009C37.0309 43.6033 50.2762 30.5379 65.0594 34.249C65.379 34.3292 65.6442 34.2075 65.8145 33.9976C59.7456 31.0104 48.1596 29.7214 30.3055 45.1949Z" fill="#C4E0A6"/>
<path d="M30.5684 45.2217C48.1636 29.9727 59.5751 31.2607 65.5446 34.2083C66.0708 33.9667 66.2407 33.0943 65.637 32.7001C60.3192 29.2275 48.4122 25.8118 28.9084 42.715C28.2393 43.2948 28.1334 44.3553 28.6686 45.0802L30.0319 46.9263C29.8967 46.3125 30.0842 45.6415 30.5684 45.2217V45.2217Z" fill="#ADD57F"/>
<path d="M99.207 56.5391C99.0781 55.6214 98.2832 54.9917 97.4363 55.1316L95.7351 55.4123C95.3703 55.8264 95.2037 56.4316 95.3599 57.0321C96.9004 62.9529 100.722 81.9126 90.3638 93.9264C90.0943 94.2389 90.0972 94.6238 90.2511 94.9156L90.3117 95.0209C95.6842 90.9976 102.645 80.9911 99.207 56.5391V56.5391Z" fill="#C4E0A6"/>
<path d="M90.5647 93.9264C100.923 81.9123 97.1013 62.9529 95.5608 57.032C95.3999 56.4136 95.5794 55.7883 95.9677 55.3738L94.1567 55.6726C93.2321 55.8251 92.6411 56.8196 92.895 57.7948C94.4354 63.7157 98.2573 82.6753 87.8989 94.6891C87.2901 95.3952 88.0679 96.4722 88.8485 96.005C89.3587 95.6997 89.8977 95.3394 90.4522 94.9153C90.2981 94.6238 90.2954 94.2391 90.5647 93.9264V93.9264Z" fill="#ADD57F"/>
<path d="M54.003 108.612C48.4995 107.097 31.4322 101.203 27.0072 85.4776C26.8721 84.9969 26.4693 84.8204 26.1113 84.8953C26.3297 84.9408 26.532 85.0826 26.6482 85.3354C27.4131 92.5087 32.3361 103.747 53.1936 112.575C53.6276 112.758 54.0905 112.715 54.4756 112.502L55.0686 110.857C55.409 109.913 54.9094 108.862 54.003 108.612V108.612Z" fill="#C4E0A6"/>
<path d="M53.2094 112.274C32.5787 103.542 27.7093 92.4258 26.9527 85.3306C26.6074 84.579 25.4968 84.8001 25.481 85.7108C25.3638 92.4362 28.5869 105.315 51.8512 115.162C52.6492 115.5 53.55 115.069 53.8617 114.204L54.6145 112.117C54.21 112.4 53.6914 112.478 53.2094 112.274V112.274Z" fill="#ADD57F"/>
</svg>
