<svg width="26" height="26" viewBox="0 0 26 26" fill="none" xmlns="http://www.w3.org/2000/svg">
<path d="M24.75 21.8634V11.3866C24.7499 10.7609 24.6071 10.1434 24.3323 9.58089C24.0576 9.01838 23.6581 8.52563 23.1641 8.13997L14.4481 1.33458C13.9633 0.95581 13.3652 0.75 12.7493 0.75C12.1335 0.75 11.5354 0.95581 11.0505 1.33458L2.33448 8.13859C1.84062 8.52454 1.4413 9.01757 1.16677 9.58032C0.892247 10.1431 0.749723 10.7608 0.75 11.3866V21.8634C0.75 23.4579 2.04514 24.75 3.64339 24.75H9.11328V13.8017H16.3853V24.75H21.8552C22.6226 24.75 23.3586 24.4459 23.9012 23.9045C24.4438 23.3632 24.75 22.629 24.75 21.8634Z" stroke="white" stroke-width="1.5" stroke-linecap="round" stroke-linejoin="round"/>
</svg>
