<svg width="21" height="26" viewBox="0 0 26 26" fill="none" xmlns="http://www.w3.org/2000/svg">
<path d="M18.6421 19.95C19.7401 21.5917 20.2034 22.5938 19.8145 23.4302C19.7665 23.5326 19.7105 23.6314 19.6465 23.7266C18.9565 24.7503 17.1744 24.7503 13.6102 24.7503H7.08897C3.52475 24.7503 1.74384 24.7503 1.0538 23.7266C0.990847 23.6319 0.934702 23.5329 0.885792 23.4302C0.496968 22.5938 0.960197 21.5917 2.05706 19.95M13.9498 9.74939C13.9498 10.7042 13.5705 11.62 12.8953 12.2951C12.2201 12.9703 11.3044 13.3496 10.3496 13.3496C9.39473 13.3496 8.479 12.9703 7.80383 12.2951C7.12865 11.62 6.74935 10.7042 6.74935 9.74939C6.74935 8.79455 7.12865 7.87882 7.80383 7.20365C8.479 6.52848 9.39473 6.14917 10.3496 6.14917C11.3044 6.14917 12.2201 6.52848 12.8953 7.20365C13.5705 7.87882 13.9498 8.79455 13.9498 9.74939Z" stroke="white" stroke-width="1.5" stroke-linecap="round" stroke-linejoin="round"/>
<path d="M10.3492 0.75C15.2203 0.75 19.3497 4.86385 19.3497 9.85495C19.3497 14.9253 15.1531 18.4835 11.2768 20.9028C10.9946 21.0652 10.6748 21.1506 10.3492 21.1506C10.0236 21.1506 9.70372 21.0652 9.42152 20.9028C5.55249 18.4595 1.34863 14.9433 1.34863 9.85495C1.34863 4.86385 5.47808 0.75 10.3492 0.75Z" stroke="white" stroke-width="1.5" stroke-linecap="round" stroke-linejoin="round"/>
</svg>
