<svg width="26" height="26" viewBox="0 0 26 26" fill="none" xmlns="http://www.w3.org/2000/svg">
<path d="M1.81982 11.55V15.15C1.81982 19.6752 1.81982 21.9384 3.32689 23.3436C4.83395 24.7488 7.25786 24.75 12.1069 24.75H13.3928C18.2419 24.75 20.6671 24.75 22.1729 23.3436M23.68 11.55V15.15C23.68 16.554 23.68 17.7396 23.635 18.75" stroke="white" stroke-width="1.5" stroke-linecap="round" fill="none"/>
<path d="M9.53527 0.75H15.9647M9.53527 0.75L8.69687 8.5704C8.64164 9.09812 8.70535 9.63078 8.8839 10.1342C9.06246 10.6375 9.35191 11.1004 9.73365 11.4932C10.1154 11.8859 10.581 12.1997 11.1004 12.4145C11.6199 12.6293 12.1818 12.7402 12.75 12.7402C13.3182 12.7402 13.8801 12.6293 14.3996 12.4145C14.919 12.1997 15.3846 11.8859 15.7664 11.4932C16.1481 11.1004 16.4375 10.6375 16.6161 10.1342C16.7947 9.63078 16.8584 9.09812 16.8031 8.5704L15.9647 0.75M9.53527 0.75H6.85805C5.69046 0.75 5.10667 0.75 4.60517 0.8784C4.08357 1.01191 3.59788 1.24628 3.17963 1.5663C2.76139 1.88632 2.41992 2.28485 2.17741 2.736M9.53527 0.75L8.603 9.444C8.5538 9.94155 8.39631 10.4245 8.14015 10.8633C7.884 11.3021 7.53458 11.6874 7.11329 11.9958C6.69199 12.3042 6.20769 12.5291 5.69002 12.6567C5.17235 12.7844 4.63222 12.8121 4.10267 12.7382C3.57313 12.6643 3.06533 12.4902 2.61035 12.2268C2.15538 11.9634 1.7628 11.6161 1.45665 11.2061C1.1505 10.7962 0.93723 10.3323 0.829886 9.84275C0.722542 9.35323 0.723386 8.84841 0.832367 8.3592L0.919807 7.95M15.9647 0.75H18.642C19.8095 0.75 20.3933 0.75 20.8948 0.8784C21.4164 1.01191 21.9021 1.24628 22.3204 1.5663C22.7386 1.88632 23.0801 2.28485 23.3226 2.736C23.5553 3.168 23.6698 3.7032 23.8987 4.7712L24.6676 8.3592C24.7766 8.84841 24.7775 9.35323 24.6701 9.84275C24.5628 10.3323 24.3495 10.7962 24.0434 11.2061C23.7372 11.6161 23.3446 11.9634 22.8896 12.2268C22.4347 12.4902 21.9269 12.6643 21.3973 12.7382C20.8678 12.8121 20.3276 12.7844 19.81 12.6567C19.2923 12.5291 18.808 12.3042 18.3867 11.9958C17.9654 11.6874 17.616 11.3021 17.3598 10.8633C17.1037 10.4245 16.9462 9.94155 16.897 9.444L15.9647 0.75ZM9.53527 24.15V20.55C9.53527 19.428 9.53527 18.8676 9.79374 18.45C9.96302 18.1764 10.2065 17.9492 10.4997 17.7912C10.9472 17.55 11.5477 17.55 12.75 17.55C13.9523 17.55 14.5528 17.55 15.0003 17.7912C15.2935 17.9492 15.537 18.1764 15.7063 18.45C15.9647 18.8676 15.9647 19.428 15.9647 20.55V24.15" stroke="white" stroke-width="1.5" stroke-linecap="round" fill="none"/>
</svg>
