<svg width="37" height="37" viewBox="0 0 37 37" fill="none" xmlns="http://www.w3.org/2000/svg">
<path d="M27.6132 22.8198L23.432 15.5805L29.7492 11.9289L30.7992 13.7547L33.2457 17.9905C33.6835 18.6543 33.9168 19.432 33.9168 20.2271C33.9168 21.0223 33.6835 21.8 33.2457 22.4637C32.8988 23.0115 32.5883 23.5775 32.2688 24.1343C31.4381 25.5402 30.6256 26.9461 29.7949 28.3428C29.4806 28.9065 29.019 29.3742 28.4594 29.6958C27.8998 30.0174 27.2633 30.1808 26.618 30.1686C25.9333 30.1686 25.2395 30.1686 24.5548 30.1686H24.2444V33.4733H24.1806C23.9068 32.9895 23.6236 32.5604 23.3498 32.0401C22.3334 30.2751 21.3172 28.5193 20.3008 26.7726C20.2408 26.6922 20.2083 26.5945 20.2083 26.4942C20.2083 26.3938 20.2408 26.2962 20.3008 26.2158C21.5697 24.0339 22.8203 21.8521 24.0801 19.6703L24.2444 19.4238V22.8015L27.6132 22.8198ZM24.993 15.973C24.9893 16.0033 24.9893 16.034 24.993 16.0643L28.818 22.6737C28.8549 22.7196 28.9007 22.7577 28.9524 22.7859C29.0041 22.8141 29.0608 22.8318 29.1193 22.838C29.5028 22.838 29.8771 22.838 30.2605 22.838C30.875 22.8544 31.4738 22.6422 31.941 22.2426C32.4081 21.8429 32.7103 21.2841 32.7892 20.6745C32.8535 19.9152 32.6605 19.1564 32.2414 18.52L29.4481 13.6908L29.3019 13.4717L24.993 15.973ZM31.146 23.9152H23.3954V22.6281C22.6469 23.9335 21.9349 25.1477 21.2411 26.3801C21.217 26.4283 21.2044 26.4814 21.2044 26.5353C21.2044 26.5891 21.217 26.6423 21.2411 26.6905C21.8893 27.8316 22.5556 28.9818 23.2221 30.123L23.3954 30.3603V29.0549H26.5997C27.0572 29.0662 27.509 28.9523 27.9065 28.7254C28.3039 28.4986 28.6317 28.1674 28.8546 27.7677L29.4207 26.8L31.146 23.9152Z" fill="white"/>
<path d="M20.821 11.1164L19.1322 8.17685L14.9328 15.4344L8.62475 11.7828L9.4554 10.3313L12.1029 5.76679C12.3769 5.20785 12.7779 4.72094 13.2742 4.34519C13.7704 3.96944 14.3479 3.71531 14.9602 3.60322C15.621 3.5315 16.2862 3.51013 16.9503 3.53931H22.7199C23.2762 3.5211 23.8291 3.63292 24.3346 3.86588C24.8401 4.09884 25.2844 4.44652 25.632 4.88128C25.9397 5.29924 26.2174 5.73854 26.4628 6.19585C26.7002 6.59753 26.9376 7.00834 27.1749 7.42828L30.1053 5.74854L29.9957 6.00415C28.7176 8.19511 27.4457 10.3922 26.1798 12.5953C26.1484 12.6646 26.0966 12.7227 26.0314 12.7618C25.9661 12.801 25.8906 12.8193 25.8147 12.8144H18.2193C18.1372 12.8164 18.0568 12.7907 17.9911 12.7413L20.821 11.1164ZM14.5038 13.8551C14.5038 13.8551 14.5586 13.8551 14.5677 13.8003C15.8458 11.582 17.1329 9.37275 18.4019 7.1544C18.42 7.11424 18.4295 7.07067 18.4295 7.0266C18.4295 6.98252 18.42 6.93896 18.4019 6.89879C18.201 6.51537 17.9911 6.13196 17.7629 5.77593C17.5832 5.46076 17.3351 5.18986 17.037 4.98313C16.7389 4.7764 16.3982 4.63909 16.0401 4.5813C15.6819 4.5235 15.3154 4.54669 14.9674 4.64915C14.6193 4.75162 14.2987 4.93076 14.029 5.17341C13.665 5.48436 13.3563 5.85476 13.1161 6.26889C12.1485 7.89385 11.2174 9.53707 10.268 11.1712C10.2373 11.2336 10.2098 11.2976 10.1858 11.3629L14.5038 13.8551ZM26.618 8.68807L25.0295 5.92198C24.8248 5.53743 24.5216 5.21402 24.1512 4.9847C23.7807 4.75539 23.3562 4.62835 22.9207 4.61654C21.4418 4.61654 19.963 4.61654 18.4841 4.61654C18.4537 4.6142 18.4231 4.6142 18.3927 4.61654L22.2451 11.2625L21.1406 11.9106H25.3946C25.5187 11.8829 25.627 11.8075 25.6959 11.7006C26.2254 10.7877 26.7457 9.87484 27.2661 8.96194L27.7591 8.10381L26.618 8.68807Z" fill="white"/>
<path d="M19.0499 30.123H12.0206C11.2515 30.1584 10.4885 29.9725 9.82191 29.5874C9.15528 29.2023 8.61289 28.6341 8.25932 27.9503C7.15471 25.951 5.99537 23.9883 4.8725 21.9982C4.53304 21.4313 4.35387 20.7829 4.35387 20.1222C4.35387 19.4614 4.53304 18.813 4.8725 18.2462L6.0319 16.2378L3.08325 14.5398H10.9891C11.0737 14.532 11.1585 14.5506 11.232 14.5932C11.3056 14.6357 11.3643 14.7 11.3999 14.7771L15.2066 21.3774C15.2066 21.4322 15.2704 21.4961 15.3526 21.6421L12.3856 19.935L10.6878 22.8654H19.0407L19.0499 30.123ZM17.9453 23.9792H10.2405C10.1815 23.9866 10.1246 24.0068 10.0742 24.0384C10.0238 24.0699 9.98085 24.112 9.94828 24.1618C9.74135 24.4965 9.5406 24.8434 9.34584 25.2025C9.08602 25.6565 8.97453 26.1803 9.02691 26.7008C9.07928 27.2212 9.29274 27.7123 9.63781 28.1055C9.9101 28.3987 10.2411 28.6315 10.6091 28.7888C10.9771 28.9461 11.3739 29.0243 11.7741 29.0184C13.7825 29.0184 15.7818 29.0184 17.781 29.0184H17.9453V23.9792ZM8.00391 25.3303C9.21806 23.048 10.5691 20.8662 11.8289 18.6296L12.8878 19.2321C12.8852 19.1281 12.8538 19.0269 12.7966 18.94C12.1576 17.8354 11.5185 16.7399 10.8886 15.6261C10.8526 15.5473 10.7926 15.482 10.7172 15.4393C10.6418 15.3967 10.5548 15.379 10.4687 15.3888H6.28754L7.41039 16.0552C7.34649 16.1739 7.3009 16.2743 7.24613 16.3656C6.77142 17.1872 6.28753 18.0088 5.82195 18.8395C5.5719 19.2408 5.43927 19.7041 5.43927 20.1769C5.43927 20.6497 5.5719 21.1131 5.82195 21.5143C6.44272 22.5824 7.04524 23.6597 7.64775 24.7277L8.00391 25.3303Z" fill="white"/>
</svg>
