<svg width="26" height="26" viewBox="0 0 26 26" fill="none" xmlns="http://www.w3.org/2000/svg">
<path opacity="0.4" d="M6.35107 16.376L10.1043 11.5144L14.3855 14.8661L18.0585 10.1416" stroke="black" stroke-width="1.5" stroke-linecap="round" stroke-linejoin="round"/>
<path d="M22.3395 5.55456C23.6707 5.55456 24.7499 4.47902 24.7499 3.15228C24.7499 1.82554 23.6707 0.75 22.3395 0.75C21.0083 0.75 19.9292 1.82554 19.9292 3.15228C19.9292 4.47902 21.0083 5.55456 22.3395 5.55456Z" stroke="black" stroke-width="1.5" stroke-linecap="round" stroke-linejoin="round"/>
<path d="M15.981 1.80273H6.86766C3.09146 1.80273 0.75 4.46811 0.75 8.23167V18.3327C0.75 22.0962 3.04556 24.7502 6.86766 24.7502H17.6568C21.4331 24.7502 23.7744 22.0962 23.7744 18.3327V9.53577" stroke="black" stroke-width="1.5" stroke-linecap="round" stroke-linejoin="round"/>
</svg>
